<svg xmlns="http://www.w3.org/2000/svg"  viewBox="0 0 50 50" width="250px" height="250px"><path d="M8.388 15.074c-.402-.167-.848-.478-.99-.679.863-.76 6.218-1.331 9.617-1.396.394-.008.749-.246.903-.608.154-.362.083-.782-.184-1.071l-2.776-3C14.768 8.115 14.501 8 14.224 8c-.036 0-.072.002-.109.006C9.827 8.474 4.386 9.99 2.749 11.879c-.893 1.031-.934 2.249-.102 3.031 1.452 1.366 4.806 2.006 5.184 2.074C7.891 16.995 7.951 17 8.01 17c.437 0 .833-.287.959-.72C9.113 15.788 8.862 15.268 8.388 15.074zM47.251 11.879c-1.637-1.889-7.078-3.405-11.366-3.873C35.848 8.002 35.812 8 35.776 8c-.277 0-.544.115-.734.321l-2.776 3c-.269.291-.341.713-.183 1.077s.515.6.912.602c3.396.065 8.765.637 9.61 1.391-.14.201-.589.515-.996.684-.471.196-.721.717-.576 1.207C41.16 16.714 41.554 17 41.99 17c.059 0 .119-.005.179-.016.378-.068 3.732-.708 5.184-2.074C48.185 14.128 48.144 12.91 47.251 11.879zM19.5 8.5c3.116 0 4.5 3.261 4.5 4.5 0 .552.448 1 1 1s1-.448 1-1c0-1.239 1.384-4.5 4.5-4.5.552 0 1-.448 1-1 0-.552-.448-1-1-1C27.384 6.5 26 3.239 26 2c0-.552-.448-1-1-1s-1 .448-1 1c0 1.239-1.384 4.5-4.5 4.5-.552 0-1 .448-1 1C18.5 8.052 18.948 8.5 19.5 8.5zM38.843 35.016H25.1c-.516 0-.948.393-.996.907-.048.514.304.98.811 1.075 1.353.254 3.498 1.173 3.498 2.559v5.106c-.622.356-1.794.677-2.534.677-6.883 0-8.431-9.751-8.431-13.167 0-3.731 1.756-10.782 8.396-10.806 7.919.548 9.02 7.408 9.063 7.7.073.494.497.854.988.854.024 0 .049-.001.074-.003.522-.038.927-.473.927-.997l.002-9.144c0-.545-.437-.99-.982-1l-.423-.008c-1.487-.028-2.66-.05-3.973-.523C29.311 17.477 26.647 17 24.559 17c-.15 0-.296.002-.473.007-.102-.002-.204-.003-.306-.003-7.957 0-14.586 6.538-14.777 14.573-.005.225-.005.45-.001.675 0 10.757 6.466 17.451 16.875 17.451 4.896 0 8.431-1.477 10.807-4.516.138-.176.212-.393.212-.616v-5.603c0-1.732 1.824-1.937 2.032-1.955.534-.045.937-.504.914-1.039C39.82 35.439 39.379 35.016 38.843 35.016zM30.482 48.128c1.813-.512 3.321-1.37 4.547-2.582C33.803 46.759 32.295 47.616 30.482 48.128zM35.897 38.968L35.897 38.968c0-.267.029-.511.082-.735C35.926 38.457 35.897 38.701 35.897 38.968z"/></svg>