<?xml version="1.0" standalone="no"?>
<!DOCTYPE svg PUBLIC "-//W3C//DTD SVG 20010904//EN"
 "http://www.w3.org/TR/2001/REC-SVG-20010904/DTD/svg10.dtd">
<svg version="1.0" xmlns="http://www.w3.org/2000/svg"
 width="1280.000000pt" height="720.000000pt" viewBox="0 0 1280.000000 720.000000"
 preserveAspectRatio="xMidYMid meet">

<g transform="translate(0.000000,720.000000) scale(0.100000,-0.100000)"
fill="#000000" stroke="none">
<path d="M6397 4393 c-3 -4 -10 -28 -17 -53 -16 -58 -72 -112 -134 -130 -44
-12 -62 -30 -30 -30 8 0 39 -11 68 -25 54 -25 69 -45 106 -140 l12 -30 22 59
c26 68 57 98 126 123 28 10 50 20 50 23 0 3 -28 16 -62 30 -69 28 -92 54 -118
130 -10 29 -20 48 -23 43z"/>
<path d="M5938 4126 c-114 -35 -215 -80 -262 -119 -21 -17 -27 -28 -22 -44 9
-27 76 -59 141 -66 28 -4 43 -4 35 0 -8 3 -23 12 -32 20 -9 8 -22 12 -27 8 -6
-3 -11 -2 -11 3 0 21 163 63 323 83 53 6 97 16 97 21 0 6 -12 19 -26 30 -14
11 -36 38 -50 59 -14 22 -32 39 -42 38 -9 0 -65 -15 -124 -33z"/>
<path d="M6716 4144 c-9 -8 -21 -25 -28 -37 -6 -12 -24 -33 -39 -46 -16 -13
-29 -27 -29 -31 0 -4 44 -13 98 -19 157 -19 264 -43 311 -71 14 -8 14 -9 -1
-10 -10 0 -18 -4 -18 -8 0 -5 -10 -14 -22 -20 -19 -9 -16 -10 22 -6 63 8 134
45 138 72 6 42 -126 112 -312 166 -104 31 -100 30 -120 10z"/>
<path d="M4745 4120 c-306 -43 -422 -474 -187 -693 83 -76 126 -92 262 -92
129 0 190 16 259 66 l41 29 0 93 c0 101 5 115 55 141 28 14 18 15 -168 16
-181 0 -235 -8 -159 -23 16 -3 43 -18 61 -32 31 -27 31 -28 31 -122 0 -115 -8
-133 -57 -133 -224 0 -320 421 -143 624 43 49 83 68 140 68 53 0 94 -18 131
-59 42 -46 50 -60 74 -119 l23 -57 7 54 c3 30 5 76 3 103 -3 48 -4 49 -46 62
-24 7 -68 24 -97 39 -49 24 -72 29 -155 39 -14 1 -48 0 -75 -4z"/>
<path d="M8305 4070 c-35 -9 -195 -46 -245 -56 -34 -7 -34 -7 -10 -16 58 -21
60 -29 60 -190 0 -81 -3 -148 -6 -148 -6 0 -272 220 -319 263 -17 16 -30 18
-87 13 -94 -8 -106 -15 -66 -35 l33 -16 3 -220 c1 -121 0 -230 -3 -243 -3 -12
-20 -31 -38 -42 l-32 -20 170 0 c156 1 168 2 143 16 -15 8 -32 23 -38 34 -10
19 -15 350 -4 350 3 0 59 -45 124 -100 112 -95 118 -103 125 -145 9 -62 29
-108 66 -150 31 -35 77 -65 99 -65 7 0 10 108 10 335 0 366 2 383 56 423 25
18 26 21 9 21 -11 -1 -33 -4 -50 -9z"/>
<path d="M6287 3919 c-67 -35 -98 -110 -76 -186 15 -55 49 -90 155 -162 113
-77 134 -98 134 -138 0 -73 -84 -106 -168 -66 -44 21 -105 82 -122 123 -7 16
-16 30 -21 30 -20 0 -1 -159 22 -184 10 -11 90 -18 210 -20 76 -1 90 2 122 24
46 32 72 89 72 160 -1 93 -13 107 -231 265 -38 28 -70 58 -72 68 -7 35 8 64
38 77 57 24 133 -9 165 -71 13 -24 60 -59 80 -59 12 0 3 34 -24 89 -30 58 -30
58 -83 64 -96 12 -161 7 -201 -14z"/>
<path d="M5200 3845 c23 -25 25 -35 28 -145 l4 -118 58 36 58 37 4 70 3 70 64
3 c77 4 108 -8 139 -51 l22 -32 0 31 c0 17 -5 45 -11 63 l-11 31 -96 0 c-87 0
-166 8 -257 26 l-30 6 25 -27z"/>
<path d="M5648 3820 c21 -20 22 -28 22 -220 0 -187 -1 -201 -20 -220 l-20 -20
102 0 102 0 -22 20 c-21 20 -22 29 -22 171 l0 151 43 -54 c24 -29 89 -112 145
-184 87 -111 144 -166 158 -151 2 1 -3 21 -11 42 -10 29 -14 94 -15 242 l0
202 26 20 27 21 -109 0 -108 0 22 -20 c20 -19 22 -30 22 -151 l0 -131 -117
151 -118 151 -64 0 -65 0 22 -20z"/>
<path d="M6665 3815 c25 -24 25 -26 25 -214 0 -196 -5 -229 -42 -268 -12 -13
-20 -25 -17 -27 2 -2 44 9 94 25 49 16 98 29 108 29 17 0 17 2 -4 19 -31 25
-41 138 -14 164 20 21 164 24 183 5 7 -7 12 -39 12 -75 0 -54 -4 -68 -25 -88
l-24 -25 106 0 c105 0 105 0 82 19 -24 19 -24 21 -24 221 0 200 0 202 24 221
23 19 23 19 -82 19 l-106 0 24 -25 c21 -20 25 -34 25 -84 0 -92 1 -91 -99 -91
-54 0 -92 5 -99 12 -29 29 -6 167 30 181 7 3 -35 6 -94 6 l-107 1 24 -25z"/>
<path d="M7287 3825 c19 -8 35 -23 38 -37 3 -13 4 -106 3 -208 l-3 -185 -35
-17 c-35 -18 -35 -18 105 -18 140 0 140 0 105 18 l-35 17 0 205 0 205 35 17
c35 18 35 18 -105 18 -129 -1 -137 -2 -108 -15z"/>
<path d="M5423 3655 c-102 -28 -185 -80 -234 -148 -35 -49 -37 -65 -4 -43 34
22 45 20 45 -10 0 -30 -14 -60 -44 -93 l-21 -24 35 7 c19 4 113 10 208 13 196
6 183 -1 197 99 l7 49 -20 -31 c-40 -63 -67 -75 -156 -72 l-81 3 0 65 0 64 40
9 c22 5 78 12 125 16 l85 7 -35 22 c-22 14 -37 32 -40 49 -6 34 -32 38 -107
18z"/>
<path d="M7237 3663 c-4 -3 -7 -16 -7 -29 0 -15 -12 -29 -37 -45 -42 -25 -40
-26 55 -32 l62 -3 0 52 c0 38 -4 53 -16 58 -21 8 -49 8 -57 -1z"/>
<path d="M7480 3551 c0 -37 3 -42 38 -57 20 -10 50 -26 65 -37 l29 -20 -16 31
c-20 39 -72 99 -97 113 -17 9 -19 6 -19 -30z"/>
<path d="M5238 3183 c20 -14 22 -24 22 -92 0 -47 -5 -82 -12 -89 -9 -9 1 -12
46 -12 50 0 57 2 46 14 -6 8 -12 47 -14 87 -1 64 1 73 23 90 l24 19 -79 -1
c-75 0 -78 -1 -56 -16z"/>
<path d="M5563 3186 c14 -11 17 -29 17 -93 0 -48 -5 -84 -12 -91 -9 -9 -4 -12
22 -12 26 0 31 3 22 12 -7 7 -12 40 -12 77 0 75 6 72 46 -21 15 -38 32 -68 36
-68 5 0 12 10 17 23 5 12 21 47 35 77 l26 55 -3 -78 -2 -77 50 0 c38 0 46 3
37 12 -19 19 -16 157 5 180 15 17 14 18 -34 18 l-51 0 -22 -55 c-12 -30 -26
-55 -30 -55 -4 0 -18 25 -31 55 l-24 55 -55 0 c-48 -1 -53 -2 -37 -14z"/>
<path d="M6073 3182 c25 -27 24 -167 0 -181 -14 -8 -2 -10 47 -11 50 0 61 3
52 12 -7 7 -12 25 -12 40 0 23 4 28 24 28 68 0 109 43 82 85 -19 29 -72 45
-150 45 -57 0 -58 -1 -43 -18z m123 -27 c15 -23 15 -27 0 -50 -25 -38 -36 -30
-36 25 0 55 11 63 36 25z"/>
<path d="M6563 3182 c-2 -26 -72 -175 -86 -184 -7 -5 0 -8 16 -8 16 0 26 4 22
9 -3 5 0 21 6 35 10 22 19 26 55 26 34 0 46 -5 54 -21 7 -11 9 -27 6 -35 -4
-11 6 -14 46 -14 48 0 50 1 36 18 -8 9 -32 56 -53 105 -36 83 -40 87 -69 87
-24 0 -32 -5 -33 -18z m32 -62 c22 -42 19 -50 -20 -50 -19 0 -35 2 -35 5 0 7
33 75 37 75 1 0 9 -13 18 -30z"/>
<path d="M7005 3185 c-22 -8 -41 -15 -42 -15 -8 0 -33 -62 -33 -80 0 -33 26
-75 55 -88 54 -25 152 -8 163 28 4 12 1 11 -15 -2 -26 -24 -78 -23 -103 2 -42
42 -36 103 14 135 29 19 58 13 86 -18 l20 -21 0 26 c0 22 -5 26 -39 32 -22 3
-45 8 -53 11 -7 2 -31 -2 -53 -10z"/>
<path d="M7350 3168 c0 -28 2 -30 13 -15 6 10 26 19 42 20 l30 2 3 -76 c2 -60
-1 -80 -13 -93 -15 -15 -11 -16 47 -16 48 1 59 3 46 11 -15 8 -18 24 -18 90 0
92 12 106 61 69 l30 -22 -3 29 -3 28 -117 3 -118 3 0 -33z"/>
<path d="M11745 1195 c37 -10 41 -13 15 -10 -164 21 -386 13 -413 -14 -6 -6 2
-17 24 -30 22 -13 37 -17 43 -11 13 13 27 13 24 -1 -2 -6 14 -12 36 -14 38 -4
63 -15 34 -15 -18 0 -32 -27 -18 -35 6 -4 16 -3 22 1 20 13 50 12 55 -2 2 -7
-1 -23 -7 -36 -10 -22 -10 -22 4 -4 8 10 17 23 19 29 2 6 8 7 14 4 17 -10 27
-105 14 -121 -8 -10 -7 -16 4 -26 18 -15 20 -56 3 -63 -10 -4 -10 -6 0 -6 24
-2 11 -31 -20 -45 l-33 -14 30 -2 c17 -1 42 -1 58 0 19 1 27 -3 27 -15 0 -9 5
-13 10 -10 6 3 10 0 10 -8 0 -24 -35 -47 -71 -47 -49 0 -66 -19 -37 -42 30
-23 8 -24 -58 -2 -62 21 -74 31 -74 60 0 12 -5 26 -10 29 -6 4 -8 11 -5 16 3
5 -1 6 -10 3 -12 -5 -13 -10 -6 -17 6 -6 11 -23 11 -37 0 -14 14 -48 31 -74
16 -27 28 -51 24 -54 -3 -3 5 -16 17 -29 12 -13 17 -23 11 -23 -13 0 -44 34
-47 52 -1 7 -11 31 -23 52 -19 36 -21 38 -27 18 -4 -12 -1 -33 8 -50 20 -39
85 -95 102 -88 7 3 16 1 19 -4 4 -6 15 -10 26 -10 11 0 18 -4 15 -9 -3 -5 2
-15 11 -22 15 -12 16 -12 10 4 -6 15 -4 16 13 7 14 -7 26 -8 39 0 13 7 22 7
26 0 3 -5 -1 -10 -10 -10 -10 0 -13 -5 -9 -12 4 -7 4 -10 0 -6 -9 7 -70 -12
-62 -19 3 -3 -1 -11 -8 -19 -11 -10 -11 -20 -2 -49 9 -30 13 -33 23 -19 6 9
10 21 8 27 -6 18 50 58 69 51 12 -5 14 -10 6 -19 -5 -6 -7 -15 -3 -18 11 -11
23 -8 23 6 0 7 10 23 21 36 31 33 44 13 24 -34 -8 -21 -12 -41 -7 -44 5 -3 10
-33 11 -66 1 -51 -2 -62 -19 -73 -18 -11 -22 -10 -30 10 -9 20 -9 19 -5 -8 3
-16 1 -41 -4 -55 -7 -16 -10 -18 -10 -7 -1 9 -11 24 -22 32 -19 13 -20 19 -12
53 5 21 15 37 21 36 8 -2 9 5 1 24 -5 14 -8 31 -6 38 3 6 -1 19 -9 29 -12 17
-13 17 -19 -10 -13 -57 -17 -69 -31 -91 -8 -13 -21 -23 -30 -23 -8 0 -12 5 -9
11 9 13 -2 54 -18 71 -7 7 -20 31 -28 53 -9 22 -20 39 -26 38 -11 -2 -27 56
-18 65 3 3 5 0 5 -6 0 -17 17 -15 24 3 3 10 -5 20 -24 30 -16 8 -32 15 -35 15
-3 0 -3 -21 0 -47 l6 -48 -21 25 -22 25 7 -30 c37 -178 41 -206 31 -213 -17
-11 -80 -31 -84 -27 -2 2 -8 22 -13 44 -7 31 -5 58 7 106 12 47 14 83 9 130
-7 70 -24 97 -26 43 -1 -18 -2 -49 -4 -68 -10 -151 -3 -290 14 -290 3 0 5 -38
3 -85 -3 -83 -3 -85 20 -85 16 0 19 3 10 9 -10 6 -8 10 8 14 13 3 23 0 27 -9
7 -18 148 -16 148 3 0 6 4 15 9 20 5 4 6 3 3 -4 -11 -17 57 -9 88 11 16 11 25
26 25 43 l0 27 29 -28 c16 -15 31 -41 35 -57 4 -20 11 -29 26 -29 17 0 18 3
10 26 -12 32 -12 34 1 34 5 0 15 -13 20 -30 12 -33 53 -45 43 -12 -5 16 -4 15
9 -1 11 -13 26 -17 49 -15 l33 3 -32 15 c-30 14 -63 55 -63 80 0 7 -7 18 -16
25 -11 8 -17 28 -17 63 -1 33 -5 52 -13 52 -28 0 -32 84 -8 175 23 92 46 103
46 23 0 -41 1 -41 9 -13 5 17 7 35 5 42 -3 6 6 23 19 38 14 14 29 34 35 45 6
12 19 19 32 17 22 -2 24 1 27 46 1 12 5 28 10 36 16 26 43 -6 36 -41 -4 -16
-2 -34 3 -41 5 -7 15 -41 21 -77 7 -36 14 -74 16 -85 2 -11 4 -39 4 -62 1 -24
5 -43 10 -43 22 0 -18 303 -46 354 -9 16 -11 26 -4 22 6 -4 11 -4 11 -1 0 13
-66 61 -124 91 -90 45 -115 108 -82 206 8 24 13 66 12 95 -3 44 0 55 20 74 30
28 30 39 1 39 -13 0 -27 4 -32 9 -6 5 -44 12 -85 15 l-75 6 50 -15z m-121 -41
c20 -8 21 -30 1 -38 -8 -3 -15 -12 -15 -21 0 -19 -37 -20 -56 0 -9 8 -12 15
-8 15 3 0 1 7 -6 15 -7 8 -21 15 -32 15 -10 0 -16 5 -13 10 7 11 103 14 129 4z
m76 -54 c-20 -13 -33 -13 -25 0 3 6 14 10 23 10 15 0 15 -2 2 -10z m25 -83
c13 -4 9 -5 -9 -4 -16 1 -32 9 -34 17 -4 12 -2 13 9 4 8 -7 23 -14 34 -17z
m15 -51 c0 -18 3 -47 6 -64 6 -29 5 -31 -25 -30 -17 1 -29 3 -27 6 3 2 -1 11
-9 18 -14 14 -10 49 8 72 6 8 5 12 -4 12 -21 0 12 20 34 20 13 0 17 -8 17 -34z
m202 -315 c-3 -9 -9 -21 -13 -27 -5 -6 -6 -14 -2 -18 12 -12 -91 -100 -130
-112 -20 -6 -37 -7 -37 -3 0 5 6 9 14 9 7 0 19 6 25 14 10 12 8 14 -11 10 -22
-5 -22 -4 2 8 14 7 27 22 29 33 4 28 20 55 31 55 13 0 13 -13 -1 -27 -7 -7 -8
-13 0 -17 6 -4 25 15 43 42 30 46 63 67 50 33z m-188 -136 c-4 -8 -10 -15 -15
-15 -4 0 -6 7 -3 15 4 8 10 15 15 15 4 0 6 -7 3 -15z m-169 -277 c4 -11 3 -18
-4 -18 -6 0 -11 -10 -12 -22 0 -13 -10 10 -21 50 -25 88 -16 133 11 57 10 -27
21 -58 26 -67z m-105 -53 c0 -2 -10 -9 -22 -15 -22 -11 -22 -10 -4 4 21 17 26
19 26 11z m323 -32 c7 -39 1 -57 -14 -47 -19 11 -30 56 -18 70 18 22 26 17 32
-23z"/>
<path d="M11405 723 c-12 -20 -8 -73 5 -73 13 0 19 25 12 59 -6 27 -8 29 -17
14z"/>
<path d="M11303 638 c-18 -11 -39 -34 -47 -51 -28 -65 -56 -144 -77 -222 -25
-96 -61 -205 -83 -260 l-17 -40 6 50 c4 28 7 61 7 74 0 16 3 20 8 11 9 -14 21
18 52 138 30 116 32 133 17 142 -14 9 -17 55 -6 84 6 14 3 17 -9 12 -8 -3 -18
-6 -20 -6 -2 0 -4 -7 -4 -15 0 -7 -8 -18 -17 -24 -14 -7 -15 -12 -4 -25 15
-18 12 -249 -4 -265 -7 -7 -9 17 -7 71 4 80 -12 168 -29 168 -5 0 -6 -33 -3
-74 4 -58 2 -81 -12 -107 -9 -19 -20 -36 -23 -39 -31 -26 -37 -99 -15 -179 4
-14 3 -22 -2 -18 -6 3 -25 -10 -44 -29 l-34 -35 70 3 c64 3 69 5 74 28 3 14
23 61 43 105 21 44 47 105 57 135 10 30 28 74 39 97 12 23 21 47 21 52 0 6 9
26 19 44 32 57 39 70 60 119 11 25 25 49 31 53 11 7 4 26 -8 24 -4 0 -22 -10
-39 -21z"/>
<path d="M12115 650 c4 -6 11 -8 16 -5 14 9 11 15 -7 15 -8 0 -12 -5 -9 -10z"/>
<path d="M12148 644 c-4 -3 0 -16 8 -28 8 -13 11 -25 8 -28 -3 -4 4 -44 15
-90 11 -46 23 -123 25 -173 l6 -90 -19 55 c-11 30 -25 85 -32 123 -7 37 -15
67 -19 67 -7 0 -5 -20 20 -180 21 -138 23 -167 10 -175 -6 -3 -10 3 -10 14 0
11 -12 47 -26 80 -20 45 -33 63 -51 67 -28 8 -51 48 -55 98 -2 37 -11 45 -24
24 -14 -22 -13 -197 1 -208 9 -8 14 -2 20 22 4 18 7 41 6 51 -1 9 3 17 10 17
14 0 6 -149 -11 -179 -5 -11 -10 -40 -10 -65 l0 -46 103 0 102 0 4 43 c6 55 4
210 -3 312 -4 44 -8 112 -10 150 -2 39 -6 78 -11 88 -4 9 -3 17 2 17 11 0 73
-101 73 -118 0 -7 5 -12 10 -12 14 0 12 -15 -7 -58 -9 -20 -17 -50 -18 -67
l-2 -30 13 32 c16 38 32 49 47 34 8 -8 6 -20 -6 -46 -9 -20 -17 -48 -17 -64 0
-15 -7 -49 -16 -75 -13 -37 -14 -52 -5 -69 l12 -22 -5 22 c-3 15 2 24 15 28
18 6 22 15 34 74 4 19 14 41 21 49 8 7 14 22 14 33 0 28 19 23 26 -6 8 -32 22
-32 34 0 9 23 12 25 32 13 20 -10 21 -13 5 -16 -9 -2 -15 -8 -12 -13 4 -5 -5
-14 -20 -21 -14 -6 -28 -22 -31 -37 -3 -14 -7 -34 -9 -43 -5 -26 12 -22 31 7
17 27 49 33 57 12 7 -17 -93 -115 -131 -128 -16 -5 -44 -28 -61 -49 l-32 -40
96 1 c63 0 93 4 89 11 -4 6 1 6 14 -1 11 -6 66 -11 122 -11 l101 0 -29 53
c-17 28 -40 70 -52 91 -34 62 -153 238 -182 270 -9 10 -24 33 -32 50 -18 39
-86 106 -86 85 0 -8 -8 -3 -17 12 -8 14 -36 38 -60 53 -24 14 -42 22 -38 16
10 -16 -7 -11 -19 6 -6 8 -15 12 -18 8z m387 -524 c3 -5 1 -10 -4 -10 -6 0
-11 5 -11 10 0 6 2 10 4 10 3 0 8 -4 11 -10z"/>
<path d="M11206 254 c-5 -14 -4 -15 9 -4 17 14 19 20 6 20 -5 0 -12 -7 -15
-16z"/>
<path d="M10930 208 c0 -8 -9 -27 -20 -41 -18 -22 -18 -26 -3 -31 9 -4 17 -5
17 -4 1 2 10 16 20 32 16 26 17 30 2 44 -14 15 -16 15 -16 0z"/>
<path d="M11970 151 c0 -5 5 -13 10 -16 6 -3 10 -2 10 4 0 5 -4 13 -10 16 -5
3 -10 2 -10 -4z"/>
<path d="M10965 108 c-4 -18 -15 -42 -24 -52 -15 -18 -15 -18 4 -8 32 16 57
49 53 68 -6 31 -26 26 -33 -8z"/>
<path d="M11299 50 c-12 -21 -29 -41 -38 -43 -9 -3 7 -5 35 -6 39 -1 53 3 58
15 11 27 7 37 -9 24 -21 -17 -29 -7 -16 18 13 25 14 32 2 32 -6 0 -20 -18 -32
-40z"/>
<path d="M11720 30 c0 -13 5 -18 15 -14 12 5 13 10 4 20 -15 19 -19 18 -19 -6z"/>
</g>
</svg>
